Simulation
nRows=15
nColumns=15
endheader
time  TH_x TH_y TH_z SC_y  SC_z  SC_x  AC_y  AC_z  AC_x  GH_y  GH_z  GH_yy  EL_x  PS_y
1.549999999999999  0.000000  0.000000  0.000000  -34.5695410604408  7.419570087478012  23.43890640679374  59.108555814747135  6.515834232271239  -4.931726115587231  16.610839502277138  56.886744305369234  -18.381051975055076  17.928169893203634  0.000000
1.5809999999999989  0.000000  0.000000  0.000000  -34.93295882713525  7.710931005794076  23.596127875796203  59.23114485498052  6.843182209195683  -4.359883346177931  16.174924824318296  57.526256027451446  -18.24656669903531  17.9121549973995  0.000000
1.611999999999999  0.000000  0.000000  0.000000  -35.26505575959198  7.966211943457313  23.710331401839802  59.33858815121877  7.153039391209047  -3.8373932593794193  15.795054247550864  58.08570184468928  -18.128300444723077  17.905315767379776  0.000000
1.642999999999999  0.000000  0.000000  0.000000  -35.56305147061777  8.18128144104629  23.78648283195253  59.43231059287528  7.439313097302639  -3.3751233311787074  15.475457233935565  58.55452018097159  -18.026063492789234  17.9091494594206  0.000000
1.6739999999999988  0.000000  0.000000  0.000000  -35.82611177156532  8.354826996473081  23.8298979967844  59.51230278302748  7.695655214815627  -2.9821302424626768  15.222514410533725  58.92151743583994  -17.941790045923053  17.923296823949798  0.000000
1.7049999999999987  0.000000  0.000000  0.000000  -36.053444163533364  8.487738137909595  23.844439274375883  59.57687272421054  7.915827527603218  -2.6655496111839265  15.044098664230193  59.17576259509919  -17.87885178149809  17.945566482756437  0.000000
1.7359999999999989  0.000000  0.000000  0.000000  -36.242144268706305  8.581882688571673  23.83147234168063  59.62307904679078  8.0938890303998  -2.43091192435089  14.947895390681069  59.30772915524374  -17.842006610217094  17.97244002400708  0.000000
1.7669999999999988  0.000000  0.000000  0.000000  -36.386277442030426  8.638476349052953  23.79006871296022  59.64770967989001  8.224358748835051  -2.28289657867949  14.939724462536281  59.31015506120335  -17.837723674648036  17.99997465173548  0.000000
1.7979999999999987  0.000000  0.000000  0.000000  -36.47749768282467  8.657012445610217  23.717637240812444  59.648314666662316  8.303020148818751  -2.2254575296557473  15.022575506453986  59.178315139501805  -17.874645728760843  18.024603396184116  0.000000
1.8289999999999988  0.000000  0.000000  0.000000  -36.50697280788053  8.635024055108474  23.611370904677347  59.624043392822564  8.32785548779726  -2.261390610729445  15.196437936501523  58.90980540153493  -17.96357051074644  18.04366117093313  0.000000
1.8599999999999988  0.000000  0.000000  0.000000  -36.467665576741716  8.56856156296586  23.470208313489298  59.576165485933124  8.299066468972136  -2.3920206851287773  15.458692367918657  58.504424494108086  -18.116447634362657  18.05581738350515  0.000000
1.8909999999999987  0.000000  0.000000  0.000000  -36.35618263675318  8.453243741192097  23.29600261212351  59.507725685311385  8.218128356955875  -2.617219332579458  15.8049334043464  57.96434567464945  -18.344136699634415  18.0615461786715  0.000000
1.9219999999999986  0.000000  0.000000  0.000000  -36.173602255496775  8.285535286536147  23.092706807197388  59.42241676283778  8.086868440010289  -2.9353518909922736  16.229908218655265  57.29478008531139  -18.653251791912773  18.063622070859182  0.000000
1.9529999999999987  0.000000  0.000000  0.000000  -35.925298314783234  8.064236936424013  22.864722561299676  59.32305382572227  7.906738594977664  -3.343011336345377  16.7282422726598  56.50449288914712  -19.04340246923797  18.06718232169618  0.000000
1.9839999999999987  0.000000  0.000000  0.000000  -35.62001375108499  7.791114537232587  22.615793393745623  59.21068505361306  7.678286420239053  -3.8350680367942  17.294712466840263  55.60587567711664  -19.50618859180864  18.07913359744315  0.000000
